<svg width="31" height="31" viewBox="0 0 31 31" fill="none" xmlns="http://www.w3.org/2000/svg">
<path fill-rule="evenodd" clip-rule="evenodd" d="M7.73679 12.5731C6.35375 12.5731 5.22217 13.7047 5.22217 15.0877C5.22217 16.4707 6.35375 17.6023 7.73679 17.6023C9.11983 17.6023 10.2514 16.4707 10.2514 15.0877C10.2514 13.7047 9.11983 12.5731 7.73679 12.5731ZM22.8245 12.5731C21.4415 12.5731 20.3099 13.7047 20.3099 15.0877C20.3099 16.4707 21.4415 17.6023 22.8245 17.6023C24.2075 17.6023 25.3391 16.4707 25.3391 15.0877C25.3391 13.7047 24.2075 12.5731 22.8245 12.5731ZM12.766 15.0877C12.766 13.7047 13.8976 12.5731 15.2806 12.5731C16.6637 12.5731 17.7953 13.7047 17.7953 15.0877C17.7953 16.4707 16.6637 17.6023 15.2806 17.6023C13.8976 17.6023 12.766 16.4707 12.766 15.0877Z" fill="#4F4F4F"/>
</svg>
