<svg width="83" height="68" viewBox="0 0 83 68" fill="none" xmlns="http://www.w3.org/2000/svg">
<path d="M68 34.0001C68 52.7777 52.7777 68.0001 34 68.0001C15.2223 68.0001 0 52.7777 0 34.0001C0 15.2224 15.2223 6.10352e-05 34 6.10352e-05C52.7777 6.10352e-05 68 15.2224 68 34.0001Z" fill="#4F4F4F"/>
<path d="M83 34.0001C83 52.7777 67.7777 68.0001 49 68.0001C30.2223 68.0001 15 52.7777 15 34.0001C15 15.2224 30.2223 6.10352e-05 49 6.10352e-05C67.7777 6.10352e-05 83 15.2224 83 34.0001Z" fill="#8785FF"/>
<path fill-rule="evenodd" clip-rule="evenodd" d="M54.0371 23.9262H37.6667C36.9741 23.9262 36.4075 24.4929 36.4075 25.1855V42.8151L41.4445 37.7781H54.0371C54.7297 37.7781 55.2964 37.2114 55.2964 36.5188V25.1855C55.2964 24.4929 54.7297 23.9262 54.0371 23.9262ZM52.7779 26.4446V35.2595H40.3993L39.6564 36.0024L38.926 36.7328V26.4446H52.7779ZM57.8149 28.9633H60.3334C61.026 28.9633 61.5927 29.5299 61.5927 30.2225V49.1114L56.5556 44.0744H42.7038C42.0112 44.0744 41.4445 43.5077 41.4445 42.8151V40.2966H57.8149V28.9633Z" fill="white"/>
</svg>
