<svg width="87" height="76" viewBox="0 0 87 76" fill="none" xmlns="http://www.w3.org/2000/svg">
<path d="M68 34.0001C68 52.7777 52.7777 68.0001 34 68.0001C15.2223 68.0001 0 52.7777 0 34.0001C0 15.2224 15.2223 6.10352e-05 34 6.10352e-05C52.7777 6.10352e-05 68 15.2224 68 34.0001Z" fill="#4F4F4F"/>
<g filter="url(#filter0_d_75_126)">
<path d="M83 34.0001C83 52.7777 67.7777 68.0001 49 68.0001C30.2223 68.0001 15 52.7777 15 34.0001C15 15.2224 30.2223 6.10352e-05 49 6.10352e-05C67.7777 6.10352e-05 83 15.2224 83 34.0001Z" fill="#F8B76B"/>
</g>
<path fill-rule="evenodd" clip-rule="evenodd" d="M39.1111 24.6663H59.1111C60.3334 24.6663 61.3334 25.6663 61.3334 26.8885V41.333C61.3334 42.5552 60.3334 43.5552 59.1111 43.5552H39.1111C37.8889 43.5552 36.8889 42.5552 36.8889 41.333V26.8885C36.8889 25.6663 37.8889 24.6663 39.1111 24.6663ZM39.1111 26.8885V41.333H48V26.8885H39.1111ZM59.1111 41.333H50.2222V26.8885H59.1111V41.333ZM58 30.7774H51.3334V32.4441H58V30.7774ZM51.3334 33.5552H58V35.2218H51.3334V33.5552ZM58 36.333H51.3334V37.9996H58V36.333Z" fill="white"/>
<defs>
<filter id="filter0_d_75_126" x="11" y="6.10352e-05" width="76" height="76" filterUnits="userSpaceOnUse" color-interpolation-filters="sRGB">
<feFlood flood-opacity="0" result="BackgroundImageFix"/>
<feColorMatrix in="SourceAlpha" type="matrix" values="0 0 0 0 0 0 0 0 0 0 0 0 0 0 0 0 0 0 127 0" result="hardAlpha"/>
<feOffset dy="4"/>
<feGaussianBlur stdDeviation="2"/>
<feColorMatrix type="matrix" values="0 0 0 0 0 0 0 0 0 0 0 0 0 0 0 0 0 0 0.1 0"/>
<feBlend mode="normal" in2="BackgroundImageFix" result="effect1_dropShadow_75_126"/>
<feBlend mode="normal" in="SourceGraphic" in2="effect1_dropShadow_75_126" result="shape"/>
</filter>
</defs>
</svg>
