<svg width="68" height="68" viewBox="0 0 68 68" fill="none" xmlns="http://www.w3.org/2000/svg">
<g filter="url(#filter0_d_18_5304)">
<path d="M64 30C64 46.5685 50.5685 60 34 60C17.4315 60 4 46.5685 4 30C4 13.4315 17.4315 0 34 0C50.5685 0 64 13.4315 64 30Z" fill="#F2F2F2"/>
</g>
<path fill-rule="evenodd" clip-rule="evenodd" d="M38.4442 21.1107H23.9998C23.3887 21.1107 22.8887 21.6107 22.8887 22.2218V37.7773L27.3331 33.3329H38.4442C39.0553 33.3329 39.5553 32.8329 39.5553 32.2218V22.2218C39.5553 21.6107 39.0553 21.1107 38.4442 21.1107ZM37.3331 23.3328V31.1106H26.4109L25.7553 31.7661L25.1109 32.4106V23.3328H37.3331ZM41.7776 25.5551H43.9998C44.6109 25.5551 45.1109 26.0551 45.1109 26.6662V43.3329L40.6664 38.8885H28.4442C27.8331 38.8885 27.3331 38.3885 27.3331 37.7773V35.5551H41.7776V25.5551Z" fill="#8885FF"/>
<defs>
<filter id="filter0_d_18_5304" x="0" y="0" width="68" height="68" filterUnits="userSpaceOnUse" color-interpolation-filters="sRGB">
<feFlood flood-opacity="0" result="BackgroundImageFix"/>
<feColorMatrix in="SourceAlpha" type="matrix" values="0 0 0 0 0 0 0 0 0 0 0 0 0 0 0 0 0 0 127 0" result="hardAlpha"/>
<feOffset dy="4"/>
<feGaussianBlur stdDeviation="2"/>
<feColorMatrix type="matrix" values="0 0 0 0 0 0 0 0 0 0 0 0 0 0 0 0 0 0 0.1 0"/>
<feBlend mode="normal" in2="BackgroundImageFix" result="effect1_dropShadow_18_5304"/>
<feBlend mode="normal" in="SourceGraphic" in2="effect1_dropShadow_18_5304" result="shape"/>
</filter>
</defs>
</svg>
